.
 
http://www.scenetime.com    -  Hottest private tracker on the net. !!!

New release on http://www.scenetime.com

        Seed back for speed


...................................NFO:.................................................[img]http://img546.imageshack.us/img546/8808/38723041.jpg[/img]

[color=blue][size=4][b]ZhuZhu.Pets.Quest.for.Zhu.2011.DVDRip.XVID.AC3.HQ.Hive-CM8[/b][/size][/color]


[b]Thx Hive


CM8 Doing It Right The First Time :D


After "Rio" here is the next brandnew and hot animation movie from Universal-Studios.
got very nice:P
dont miss it!

Source: DVD-R1

Encode:

DVD-Quality was very good, still made a perfect video, looks like a bdrip in every way.
enjoy


Video: 720x400 @bitrate 2000 2pass
Audio: English AC3 5.1 @448
Sample: yes included
Bonus: yes 2 mini music-clips[/b]


[url]http://www.zhuniverse.com/[/url]


General
Complete name                    : ZhuZhu.Pets.Quest.for.Zhu.2011.DVDRip.XVID.AC3.HQ.Hive-CM8.avi
Format                           : AVI
Format/Info                      : Audio Video Interleave
File size                        : 1.25 GiB
Duration                         : 1h 12mn
Overall bit rate                 : 2 455 Kbps
Writing application              : Nandub v1.0rc2
Writing library                  : Nandub build 1853/release

Video
ID                               : 0
Format                           : MPEG-4 Visual
Format profile                   : Advanced Simple@L5
Format settings, BVOP            : 2
Format settings, QPel            : Yes
Format settings, GMC             : No warppoints
Format settings, Matrix          : Default (H.263)
Muxing mode                      : Packed bitstream
Codec ID                         : XVID
Codec ID/Hint                    : XviD
Duration                         : 1h 12mn
Bit rate                         : 1 997 Kbps
Width                            : 720 pixels
Height                           : 400 pixels
Display aspect ratio             : 16:9
Frame rate                       : 23.976 fps
Color space                      : YUV
Chroma subsampling               : 4:2:0
Bit depth                        : 8 bits
Scan type                        : Progressive
Compression mode                 : Lossy
Bits/(Pixel*Frame)               : 0.289
Stream size                      : 1.02 GiB (81%)
Writing library                  : XviD 1.2.1 (UTC 2008-12-04)

Audio
ID                               : 1
Format                           : AC-3
Format/Info                      : Audio Coding 3
Mode extension                   : CM (complete main)
Codec ID                         : 2000
Duration                         : 1h 12mn
Bit rate mode                    : Constant
Bit rate                         : 448 Kbps
Channel(s)                       : 6 channels
Channel positions                : Front: L C R, Side: L R, LFE
Sampling rate                    : 48.0 KHz
Bit depth                        : 16 bits
Compression mode                 : Lossy
Stream size                      : 234 MiB (18%)
Alignment                        : Split accross interleaves
Interleave, duration             : 42 ms (1.00 video frame)
Interleave, preload duration     : 500 ms


The heartwarming tale of four lively young teens (who just happen to be hamsters) on a quest 
to find the Palace of Zhu, where they believe all their dreams will come true. 
Join the feisty and lovable Pipsqueak,Mr. Squiggles, Chunk, Num Nums, and Stinker as she gets swept away to the other side of the Zhuniverse. 


Shannon Chan-Kent  ...   Pipsqueak
Mariah Wilkerson   ...   Katie
Ian James Corlett  ...   Mr. Squiggles/Stinker/ Zhusquashya
Sean Campbell      ...   Chunk
Erin Mathews       ...   Num Nums/Surfer


[img]http://img26.imageshack.us/img26/9225/62144872.png[/img]
[img]http://img8.imageshack.us/img8/484/zhzh.png[/img]
[img]http://img535.imageshack.us/img535/5163/zhzhzh.png[/img]
[img]http://img90.imageshack.us/img90/7892/zhzhzhzh.png[/img]
[img]http://img15.imageshack.us/img15/518/zhzhzhzhzh.png[/img]
[img]http://img716.imageshack.us/img716/7199/zhzhzhzhzhzh.png[/img]
[img]http://img706.imageshack.us/img706/7273/zhzhzhzhzhzhzh.png[/img]
[img]http://img594.imageshack.us/img594/7539/zhzhzhzhzhzhzhzh.png[/img]




Greetz

ViSiON,SiC,SANTi,3LT0N,YanKeeS,MAGNET,THC,T0XiC,LKRG,FANTASIA-PLAY,FANTASIA-M,BHRG,
D2U,WBZ,FLAWL3SS,NOVA,Vik,Rapeseed,SAFC,goldadvance,MEMORY100,scumbag,KaN1vE,Unevano,Pinnz,
Mr Hive,Wayne,cedrict wink,and all P2P groups


LOOKING FOR ANYTHING YOU WANT TO LOOK AND SOUND BETTER



CM8@hushmail.com